# xmcd
#
# Track frame offsets: 
#        150
#        15119
#        32614
#        48568
#        66075
#        82380
#        103634
#        118602
#        135328
#        154109
#        172009
#        188693
#        206921
#
# Disc length: 3060 seconds
#
# Revision: 5
# Processed by: cddbd v1.5.2PL0 Copyright (c) Steve Scherf et al.
# Submitted via: ExactAudioCopy v0.99pb4
#
DISCID=ab0bf20d
DTITLE=Gerard Joling - Bloedheet
DYEAR=2008
DGENRE=Chanson
TTITLE0=Vanavond Gaat Het Gebeuren
TTITLE1=24 Uur Verliefd
TTITLE2=Ware Liefde
TTITLE3=Bloedheet (Duet Met Patricia Paay)
TTITLE4=Het Is Nog Niet Voorbij
TTITLE5=Laat Me Alleen (Duet Met Rita Hovink)
TTITLE6=Mijn Nummer Een
TTITLE7=Ik Doe Geen Oog Meer Dicht Vannacht
TTITLE8=Vrij De Hele Nacht Met Mij
TTITLE9=Ik Hou D'r Zo Van
TTITLE10=Het Is Altijd Feest
TTITLE11=Afscheid Nemen Doet Zo'n Pijn
TTITLE12=Volledig Uit M'n Dak
EXTD=
EXTT0=
EXTT1=
EXTT2=
EXTT3=
EXTT4=
EXTT5=
EXTT6=
EXTT7=
EXTT8=
EXTT9=
EXTT10=
EXTT11=
EXTT12=
PLAYORDER=
